<svg xmlns="http://www.w3.org/2000/svg" viewBox="-20.0 -10 801.8 264"
  width="801.8" height="264"
  style="font-family:-apple-system,BlinkMacSystemFont,Segoe UI,system-ui,sans-serif">

  <defs>
    <marker id="tri" viewBox="0 0 10 10" refX="10" refY="5"
      markerWidth="10" markerHeight="10" orient="auto">
      <path d="M0,0 L10,5 L0,10 Z" fill="white" stroke="#94a3b8" stroke-width="1.2"/>
    </marker>
    <marker id="arr" viewBox="0 0 10 6" refX="10" refY="3"
      markerWidth="8" markerHeight="6" orient="auto">
      <path d="M0,0 L10,3 L0,6" fill="none" stroke="#3b82f6" stroke-width="1.5"/>
    </marker>
  </defs>

  <line x1="484.9" y1="196.0" x2="405.8" y2="136.0"    stroke="#94a3b8" stroke-width="1.5" marker-end="url(#tri)"/>
  <line x1="306.9" y1="196.0" x2="78.3" y2="136.0"    stroke="#94a3b8" stroke-width="1.5" marker-end="url(#tri)"/>
  <line x1="78.3" y1="98.0" x2="361.4" y2="38.0"    stroke="#94a3b8" stroke-width="1.5" marker-end="url(#tri)"/>
  <line x1="701.8" y1="98.0" x2="585.0" y2="38.0"    stroke="#94a3b8" stroke-width="1.5" marker-end="url(#tri)"/>
  <line x1="251.2" y1="98.0" x2="361.4" y2="38.0"    stroke="#94a3b8" stroke-width="1.5" marker-end="url(#tri)"/>
  <line x1="405.8" y1="98.0" x2="361.4" y2="38.0"    stroke="#94a3b8" stroke-width="1.5" marker-end="url(#tri)"/>
  <line x1="553.8" y1="98.0" x2="361.4" y2="38.0"    stroke="#94a3b8" stroke-width="1.5" marker-end="url(#tri)"/>
  <rect x="424.9" y="196.0" width="120.0" height="38"    rx="6" fill="#dbeafe" stroke="#93c5fd" stroke-width="1.5"/>
  <text x="484.9" y="220.0" text-anchor="middle"    font-size="13" font-weight="500" fill="#1e293b">EUCommittee</text>
  <rect x="216.9" y="196.0" width="180.0" height="38"    rx="6" fill="#dbeafe" stroke="#93c5fd" stroke-width="1.5"/>
  <text x="306.9" y="220.0" text-anchor="middle"    font-size="13" font-weight="500" fill="#1e293b">CouncilOnLegislation</text>
  <rect x="0.0" y="98.0" width="156.6" height="38"    rx="6" fill="#dbeafe" stroke="#93c5fd" stroke-width="1.5"/>
  <text x="78.3" y="122.0" text-anchor="middle"    font-size="13" font-weight="500" fill="#1e293b">ParliamentaryBody</text>
  <rect x="641.8" y="98.0" width="120.0" height="38"    rx="6" fill="#dbeafe" stroke="#93c5fd" stroke-width="1.5"/>
  <text x="701.8" y="122.0" text-anchor="middle"    font-size="13" font-weight="500" fill="#1e293b">Ministry</text>
  <rect x="184.6" y="98.0" width="133.2" height="38"    rx="6" fill="#dbeafe" stroke="#93c5fd" stroke-width="1.5"/>
  <text x="251.2" y="122.0" text-anchor="middle"    font-size="13" font-weight="500" fill="#1e293b">PoliticalParty</text>
  <rect x="79.0" y="0.0" width="156.6" height="38"    rx="6" fill="#dbeafe" stroke="#93c5fd" stroke-width="1.5"/>
  <text x="157.3" y="24.0" text-anchor="middle"    font-size="13" font-weight="500" fill="#1e293b">ElectoralDistrict</text>
  <rect x="345.8" y="98.0" width="120.0" height="38"    rx="6" fill="#dbeafe" stroke="#93c5fd" stroke-width="1.5"/>
  <text x="405.8" y="122.0" text-anchor="middle"    font-size="13" font-weight="500" fill="#1e293b">Committee</text>
  <rect x="493.8" y="98.0" width="120.0" height="38"    rx="6" fill="#dbeafe" stroke="#93c5fd" stroke-width="1.5"/>
  <text x="553.8" y="122.0" text-anchor="middle"    font-size="13" font-weight="500" fill="#1e293b">Government</text>
  <rect x="263.6" y="0.0" width="195.6" height="38"    rx="6" fill="#f8fafc" stroke="#cbd5e1" stroke-width="1.5" stroke-dasharray="6,3"/>
  <text x="361.4" y="24.0" text-anchor="middle"    font-size="13" font-weight="500" fill="#64748b">org:FormalOrganization</text>
  <rect x="487.2" y="0.0" width="195.6" height="38"    rx="6" fill="#f8fafc" stroke="#cbd5e1" stroke-width="1.5" stroke-dasharray="6,3"/>
  <text x="585.0" y="24.0" text-anchor="middle"    font-size="13" font-weight="500" fill="#64748b">org:OrganizationalUnit</text>
</svg>