<svg xmlns="http://www.w3.org/2000/svg" viewBox="-20.0 -10 469.2 166"
  width="469.2" height="166"
  style="font-family:-apple-system,BlinkMacSystemFont,Segoe UI,system-ui,sans-serif">

  <defs>
    <marker id="tri" viewBox="0 0 10 10" refX="10" refY="5"
      markerWidth="10" markerHeight="10" orient="auto">
      <path d="M0,0 L10,5 L0,10 Z" fill="white" stroke="#94a3b8" stroke-width="1.2"/>
    </marker>
    <marker id="arr" viewBox="0 0 10 6" refX="10" refY="3"
      markerWidth="8" markerHeight="6" orient="auto">
      <path d="M0,0 L10,3 L0,6" fill="none" stroke="#3b82f6" stroke-width="1.5"/>
    </marker>
  </defs>

  <line x1="134.0" y1="98.0" x2="60.0" y2="38.0"    stroke="#94a3b8" stroke-width="1.5" marker-end="url(#tri)"/>
  <line x1="288.6" y1="98.0" x2="60.0" y2="38.0"    stroke="#94a3b8" stroke-width="1.5" marker-end="url(#tri)"/>
  <path d="M362.6,38.0 C362.6,68.0 208.0,68.0 208.0,38.0" fill="none" stroke="#3b82f6"    stroke-width="1.2" marker-end="url(#arr)"/>
  <text x="285.3" y="56.0" text-anchor="middle"    font-size="10" fill="#2563eb">inElection</text>
  <path d="M362.6,38.0 C362.6,68.0 60.0,68.0 60.0,38.0" fill="none" stroke="#3b82f6"    stroke-width="1.2" marker-end="url(#arr)"/>
  <text x="211.3" y="56.0" text-anchor="middle"    font-size="10" fill="#2563eb">seatType</text>
  <rect x="0.0" y="0.0" width="120.0" height="38"    rx="6" fill="#ede9fe" stroke="#c4b5fd" stroke-width="1.5"/>
  <text x="60.0" y="24.0" text-anchor="middle"    font-size="13" font-weight="500" fill="#1e293b">SeatType</text>
  <rect x="74.0" y="98.0" width="120.0" height="38"    rx="6" fill="#ede9fe" stroke="#c4b5fd" stroke-width="1.5"/>
  <text x="134.0" y="122.0" text-anchor="middle"    font-size="13" font-weight="500" fill="#1e293b">FixedSeat</text>
  <rect x="222.0" y="98.0" width="133.2" height="38"    rx="6" fill="#ede9fe" stroke="#c4b5fd" stroke-width="1.5"/>
  <text x="288.6" y="122.0" text-anchor="middle"    font-size="13" font-weight="500" fill="#1e293b">AdjustmentSeat</text>
  <rect x="148.0" y="0.0" width="120.0" height="38"    rx="6" fill="#ede9fe" stroke="#c4b5fd" stroke-width="1.5"/>
  <text x="208.0" y="24.0" text-anchor="middle"    font-size="13" font-weight="500" fill="#1e293b">Election</text>
  <rect x="296.0" y="0.0" width="133.2" height="38"    rx="6" fill="#ede9fe" stroke="#c4b5fd" stroke-width="1.5"/>
  <text x="362.6" y="24.0" text-anchor="middle"    font-size="13" font-weight="500" fill="#1e293b">ElectionResult</text>
</svg>