<svg xmlns="http://www.w3.org/2000/svg" viewBox="-20.0 -10 1075.2 264"
  width="1075.2" height="264"
  style="font-family:-apple-system,BlinkMacSystemFont,Segoe UI,system-ui,sans-serif">

  <defs>
    <marker id="tri" viewBox="0 0 10 10" refX="10" refY="5"
      markerWidth="10" markerHeight="10" orient="auto">
      <path d="M0,0 L10,5 L0,10 Z" fill="white" stroke="#94a3b8" stroke-width="1.2"/>
    </marker>
    <marker id="arr" viewBox="0 0 10 6" refX="10" refY="3"
      markerWidth="8" markerHeight="6" orient="auto">
      <path d="M0,0 L10,3 L0,6" fill="none" stroke="#3b82f6" stroke-width="1.5"/>
    </marker>
  </defs>

  <line x1="113.4" y1="196.0" x2="517.6" y2="136.0"    stroke="#94a3b8" stroke-width="1.5" marker-end="url(#tri)"/>
  <line x1="517.6" y1="98.0" x2="517.6" y2="38.0"    stroke="#94a3b8" stroke-width="1.5" marker-end="url(#tri)"/>
  <line x1="321.4" y1="196.0" x2="517.6" y2="136.0"    stroke="#94a3b8" stroke-width="1.5" marker-end="url(#tri)"/>
  <line x1="476.0" y1="196.0" x2="517.6" y2="136.0"    stroke="#94a3b8" stroke-width="1.5" marker-end="url(#tri)"/>
  <line x1="634.5" y1="196.0" x2="517.6" y2="136.0"    stroke="#94a3b8" stroke-width="1.5" marker-end="url(#tri)"/>
  <line x1="803.5" y1="196.0" x2="517.6" y2="136.0"    stroke="#94a3b8" stroke-width="1.5" marker-end="url(#tri)"/>
  <line x1="968.6" y1="196.0" x2="517.6" y2="136.0"    stroke="#94a3b8" stroke-width="1.5" marker-end="url(#tri)"/>
  <path d="M476.0,234.0 C476.0,264.0 968.6,264.0 968.6,234.0" fill="none" stroke="#3b82f6"    stroke-width="1.2" marker-end="url(#arr)"/>
  <text x="722.3" y="252.0" text-anchor="middle"    font-size="10" fill="#2563eb">respondsTo</text>
  <path d="M968.6,196.0 C743.1,196.0 743.1,136.0 517.6,136.0" fill="none" stroke="#3b82f6"    stroke-width="1.2" marker-end="url(#arr)"/>
  <text x="743.1" y="160.0" text-anchor="middle"    font-size="10" fill="#2563eb">basedOn</text>
  <path d="M634.5,234.0 C634.5,264.0 113.4,264.0 113.4,234.0" fill="none" stroke="#3b82f6"    stroke-width="1.2" marker-end="url(#arr)"/>
  <text x="373.9" y="252.0" text-anchor="middle"    font-size="10" fill="#2563eb">resultsIn</text>
  <rect x="0.0" y="196.0" width="226.8" height="38"    rx="6" fill="#bbf7d0" stroke="#86efac" stroke-width="1.5"/>
  <text x="113.4" y="220.0" text-anchor="middle"    font-size="13" font-weight="500" fill="#1e293b">ParliamentaryCommunication</text>
  <rect x="423.7" y="98.0" width="187.8" height="38"    rx="6" fill="#dcfce7" stroke="#86efac" stroke-width="1.5"/>
  <text x="517.6" y="122.0" text-anchor="middle"    font-size="13" font-weight="500" fill="#1e293b">ParliamentaryDocument</text>
  <rect x="254.8" y="196.0" width="133.2" height="38"    rx="6" fill="#fef3c7" stroke="#fcd34d" stroke-width="1.5"/>
  <text x="321.4" y="220.0" text-anchor="middle"    font-size="13" font-weight="500" fill="#1e293b">Interpellation</text>
  <rect x="416.0" y="196.0" width="120.0" height="38"    rx="6" fill="#bbf7d0" stroke="#86efac" stroke-width="1.5"/>
  <text x="476.0" y="220.0" text-anchor="middle"    font-size="13" font-weight="500" fill="#1e293b">Motion</text>
  <rect x="564.0" y="196.0" width="141.0" height="38"    rx="6" fill="#bbf7d0" stroke="#86efac" stroke-width="1.5"/>
  <text x="634.5" y="220.0" text-anchor="middle"    font-size="13" font-weight="500" fill="#1e293b">CommitteeReport</text>
  <rect x="733.0" y="196.0" width="141.0" height="38"    rx="6" fill="#fef3c7" stroke="#fcd34d" stroke-width="1.5"/>
  <text x="803.5" y="220.0" text-anchor="middle"    font-size="13" font-weight="500" fill="#1e293b">WrittenQuestion</text>
  <rect x="902.0" y="196.0" width="133.2" height="38"    rx="6" fill="#bbf7d0" stroke="#86efac" stroke-width="1.5"/>
  <text x="968.6" y="220.0" text-anchor="middle"    font-size="13" font-weight="500" fill="#1e293b">GovernmentBill</text>
  <rect x="439.3" y="0.0" width="156.6" height="38"    rx="6" fill="#f8fafc" stroke="#cbd5e1" stroke-width="1.5" stroke-dasharray="6,3"/>
  <text x="517.6" y="24.0" text-anchor="middle"    font-size="13" font-weight="500" fill="#64748b">eli:LegalResource</text>
</svg>