<svg xmlns="http://www.w3.org/2000/svg" viewBox="-20.0 -10 396.79999999999995 362"
  width="396.79999999999995" height="362"
  style="font-family:-apple-system,BlinkMacSystemFont,Segoe UI,system-ui,sans-serif">

  <defs>
    <marker id="tri" viewBox="0 0 10 10" refX="10" refY="5"
      markerWidth="10" markerHeight="10" orient="auto">
      <path d="M0,0 L10,5 L0,10 Z" fill="white" stroke="#94a3b8" stroke-width="1.2"/>
    </marker>
    <marker id="arr" viewBox="0 0 10 6" refX="10" refY="3"
      markerWidth="8" markerHeight="6" orient="auto">
      <path d="M0,0 L10,3 L0,6" fill="none" stroke="#3b82f6" stroke-width="1.5"/>
    </marker>
  </defs>

  <line x1="104.4" y1="196.0" x2="178.4" y2="136.0"    stroke="#94a3b8" stroke-width="1.5" marker-end="url(#tri)"/>
  <line x1="252.4" y1="196.0" x2="178.4" y2="136.0"    stroke="#94a3b8" stroke-width="1.5" marker-end="url(#tri)"/>
  <line x1="178.4" y1="98.0" x2="278.5" y2="38.0"    stroke="#94a3b8" stroke-width="1.5" marker-end="url(#tri)"/>
  <line x1="178.4" y1="294.0" x2="252.4" y2="234.0"    stroke="#94a3b8" stroke-width="1.5" marker-end="url(#tri)"/>
  <path d="M86.1,38.0 C132.2,38.0 132.2,98.0 178.4,98.0" fill="none" stroke="#3b82f6"    stroke-width="1.2" marker-end="url(#arr)"/>
  <text x="132.2" y="62.0" text-anchor="middle"    font-size="10" fill="#2563eb">baseLaw</text>
  <path d="M86.1,38.0 C132.2,38.0 132.2,294.0 178.4,294.0" fill="none" stroke="#3b82f6"    stroke-width="1.2" marker-end="url(#arr)"/>
  <text x="132.2" y="160.0" text-anchor="middle"    font-size="10" fill="#2563eb">includesAmendments</text>
  <path d="M178.4,98.0 C132.2,98.0 132.2,38.0 86.1,38.0" fill="none" stroke="#3b82f6"    stroke-width="1.2" marker-end="url(#arr)"/>
  <text x="132.2" y="62.0" text-anchor="middle"    font-size="10" fill="#2563eb">consolidatedBy</text>
  <rect x="44.4" y="196.0" width="120.0" height="38"    rx="6" fill="#f3e8ff" stroke="#c4b5fd" stroke-width="1.5"/>
  <text x="104.4" y="220.0" text-anchor="middle"    font-size="13" font-weight="500" fill="#1e293b">Ordinance</text>
  <rect x="192.4" y="196.0" width="120.0" height="38"    rx="6" fill="#f3e8ff" stroke="#c4b5fd" stroke-width="1.5"/>
  <text x="252.4" y="220.0" text-anchor="middle"    font-size="13" font-weight="500" fill="#1e293b">Act</text>
  <rect x="118.4" y="98.0" width="120.0" height="38"    rx="6" fill="#f3e8ff" stroke="#c4b5fd" stroke-width="1.5"/>
  <text x="178.4" y="122.0" text-anchor="middle"    font-size="13" font-weight="500" fill="#1e293b">Statute</text>
  <rect x="0.0" y="0.0" width="172.2" height="38"    rx="6" fill="#f3e8ff" stroke="#c4b5fd" stroke-width="1.5"/>
  <text x="86.1" y="24.0" text-anchor="middle"    font-size="13" font-weight="500" fill="#1e293b">ConsolidatedVersion</text>
  <rect x="118.4" y="294.0" width="120.0" height="38"    rx="6" fill="#f3e8ff" stroke="#c4b5fd" stroke-width="1.5"/>
  <text x="178.4" y="318.0" text-anchor="middle"    font-size="13" font-weight="500" fill="#1e293b">AmendmentAct</text>
  <rect x="200.2" y="0.0" width="156.6" height="38"    rx="6" fill="#f8fafc" stroke="#cbd5e1" stroke-width="1.5" stroke-dasharray="6,3"/>
  <text x="278.5" y="24.0" text-anchor="middle"    font-size="13" font-weight="500" fill="#64748b">eli:LegalResource</text>
</svg>