<svg xmlns="http://www.w3.org/2000/svg" viewBox="-20.0 -10 843.8 166"
  width="843.8" height="166"
  style="font-family:-apple-system,BlinkMacSystemFont,Segoe UI,system-ui,sans-serif">

  <defs>
    <marker id="tri" viewBox="0 0 10 10" refX="10" refY="5"
      markerWidth="10" markerHeight="10" orient="auto">
      <path d="M0,0 L10,5 L0,10 Z" fill="white" stroke="#94a3b8" stroke-width="1.2"/>
    </marker>
    <marker id="arr" viewBox="0 0 10 6" refX="10" refY="3"
      markerWidth="8" markerHeight="6" orient="auto">
      <path d="M0,0 L10,3 L0,6" fill="none" stroke="#3b82f6" stroke-width="1.5"/>
    </marker>
  </defs>

  <line x1="74.4" y1="98.0" x2="401.9" y2="38.0"    stroke="#94a3b8" stroke-width="1.5" marker-end="url(#tri)"/>
  <line x1="243.4" y1="98.0" x2="401.9" y2="38.0"    stroke="#94a3b8" stroke-width="1.5" marker-end="url(#tri)"/>
  <line x1="412.4" y1="98.0" x2="401.9" y2="38.0"    stroke="#94a3b8" stroke-width="1.5" marker-end="url(#tri)"/>
  <line x1="574.8" y1="98.0" x2="401.9" y2="38.0"    stroke="#94a3b8" stroke-width="1.5" marker-end="url(#tri)"/>
  <line x1="733.3" y1="98.0" x2="401.9" y2="38.0"    stroke="#94a3b8" stroke-width="1.5" marker-end="url(#tri)"/>
  <rect x="341.9" y="0.0" width="120.0" height="38"    rx="6" fill="#bbf7d0" stroke="#86efac" stroke-width="1.5"/>
  <text x="401.9" y="24.0" text-anchor="middle"    font-size="13" font-weight="500" fill="#1e293b">Motion</text>
  <rect x="0.0" y="98.0" width="148.8" height="38"    rx="6" fill="#d1fae5" stroke="#6ee7b7" stroke-width="1.5"/>
  <text x="74.4" y="122.0" text-anchor="middle"    font-size="13" font-weight="500" fill="#1e293b">MultiPartyMotion</text>
  <rect x="176.8" y="98.0" width="133.2" height="38"    rx="6" fill="#d1fae5" stroke="#6ee7b7" stroke-width="1.5"/>
  <text x="243.4" y="122.0" text-anchor="middle"    font-size="13" font-weight="500" fill="#1e293b">FollowUpMotion</text>
  <rect x="338.0" y="98.0" width="148.8" height="38"    rx="6" fill="#d1fae5" stroke="#6ee7b7" stroke-width="1.5"/>
  <text x="412.4" y="122.0" text-anchor="middle"    font-size="13" font-weight="500" fill="#1e293b">IndividualMotion</text>
  <rect x="514.8" y="98.0" width="120.0" height="38"    rx="6" fill="#d1fae5" stroke="#6ee7b7" stroke-width="1.5"/>
  <text x="574.8" y="122.0" text-anchor="middle"    font-size="13" font-weight="500" fill="#1e293b">PartyMotion</text>
  <rect x="662.8" y="98.0" width="141.0" height="38"    rx="6" fill="#d1fae5" stroke="#6ee7b7" stroke-width="1.5"/>
  <text x="733.3" y="122.0" text-anchor="middle"    font-size="13" font-weight="500" fill="#1e293b">CommitteeMotion</text>
</svg>