<svg xmlns="http://www.w3.org/2000/svg" viewBox="-20.0 -10 1030.8 166"
  width="1030.8" height="166"
  style="font-family:-apple-system,BlinkMacSystemFont,Segoe UI,system-ui,sans-serif">

  <defs>
    <marker id="tri" viewBox="0 0 10 10" refX="10" refY="5"
      markerWidth="10" markerHeight="10" orient="auto">
      <path d="M0,0 L10,5 L0,10 Z" fill="white" stroke="#94a3b8" stroke-width="1.2"/>
    </marker>
    <marker id="arr" viewBox="0 0 10 6" refX="10" refY="3"
      markerWidth="8" markerHeight="6" orient="auto">
      <path d="M0,0 L10,3 L0,6" fill="none" stroke="#3b82f6" stroke-width="1.5"/>
    </marker>
  </defs>

  <line x1="78.3" y1="98.0" x2="495.4" y2="38.0"    stroke="#94a3b8" stroke-width="1.5" marker-end="url(#tri)"/>
  <line x1="255.1" y1="98.0" x2="495.4" y2="38.0"    stroke="#94a3b8" stroke-width="1.5" marker-end="url(#tri)"/>
  <line x1="416.3" y1="98.0" x2="495.4" y2="38.0"    stroke="#94a3b8" stroke-width="1.5" marker-end="url(#tri)"/>
  <line x1="567.0" y1="98.0" x2="495.4" y2="38.0"    stroke="#94a3b8" stroke-width="1.5" marker-end="url(#tri)"/>
  <line x1="748.9" y1="98.0" x2="495.4" y2="38.0"    stroke="#94a3b8" stroke-width="1.5" marker-end="url(#tri)"/>
  <line x1="930.8" y1="98.0" x2="495.4" y2="38.0"    stroke="#94a3b8" stroke-width="1.5" marker-end="url(#tri)"/>
  <rect x="0.0" y="98.0" width="156.6" height="38"    rx="6" fill="#f1f5f9" stroke="#cbd5e1" stroke-width="1.5"/>
  <text x="78.3" y="122.0" text-anchor="middle"    font-size="13" font-weight="500" fill="#1e293b">CommitteeReferral</text>
  <rect x="184.6" y="98.0" width="141.0" height="38"    rx="6" fill="#f1f5f9" stroke="#cbd5e1" stroke-width="1.5"/>
  <text x="255.1" y="122.0" text-anchor="middle"    font-size="13" font-weight="500" fill="#1e293b">ChamberDecision</text>
  <rect x="353.6" y="98.0" width="125.4" height="38"    rx="6" fill="#f1f5f9" stroke="#cbd5e1" stroke-width="1.5"/>
  <text x="416.3" y="122.0" text-anchor="middle"    font-size="13" font-weight="500" fill="#1e293b">ChamberDebate</text>
  <rect x="507.0" y="98.0" width="120.0" height="38"    rx="6" fill="#f1f5f9" stroke="#cbd5e1" stroke-width="1.5"/>
  <text x="567.0" y="122.0" text-anchor="middle"    font-size="13" font-weight="500" fill="#1e293b">Tabling</text>
  <rect x="424.9" y="0.0" width="141.0" height="38"    rx="6" fill="#fed7aa" stroke="#fdba74" stroke-width="1.5"/>
  <text x="495.4" y="24.0" text-anchor="middle"    font-size="13" font-weight="500" fill="#1e293b">ProceduralStage</text>
  <rect x="655.0" y="98.0" width="187.8" height="38"    rx="6" fill="#f1f5f9" stroke="#cbd5e1" stroke-width="1.5"/>
  <text x="748.9" y="122.0" text-anchor="middle"    font-size="13" font-weight="500" fill="#1e293b">CommitteeDeliberation</text>
  <rect x="870.8" y="98.0" width="120.0" height="38"    rx="6" fill="#f1f5f9" stroke="#cbd5e1" stroke-width="1.5"/>
  <text x="930.8" y="122.0" text-anchor="middle"    font-size="13" font-weight="500" fill="#1e293b">Promulgation</text>
</svg>