<svg xmlns="http://www.w3.org/2000/svg" viewBox="-20.0 -10 752.0 166"
  width="752.0" height="166"
  style="font-family:-apple-system,BlinkMacSystemFont,Segoe UI,system-ui,sans-serif">

  <defs>
    <marker id="tri" viewBox="0 0 10 10" refX="10" refY="5"
      markerWidth="10" markerHeight="10" orient="auto">
      <path d="M0,0 L10,5 L0,10 Z" fill="white" stroke="#94a3b8" stroke-width="1.2"/>
    </marker>
    <marker id="arr" viewBox="0 0 10 6" refX="10" refY="3"
      markerWidth="8" markerHeight="6" orient="auto">
      <path d="M0,0 L10,3 L0,6" fill="none" stroke="#3b82f6" stroke-width="1.5"/>
    </marker>
  </defs>

  <line x1="356.0" y1="98.0" x2="652.0" y2="38.0"    stroke="#94a3b8" stroke-width="1.5" marker-end="url(#tri)"/>
  <path d="M504.0,38.0 C504.0,68.0 356.0,68.0 356.0,38.0" fill="none" stroke="#3b82f6"    stroke-width="1.2" marker-end="url(#arr)"/>
  <text x="430.0" y="56.0" text-anchor="middle"    font-size="10" fill="#2563eb">hasProcedure</text>
  <path d="M356.0,38.0 C356.0,68.0 652.0,68.0 652.0,38.0" fill="none" stroke="#3b82f6"    stroke-width="1.2" marker-end="url(#arr)"/>
  <text x="504.0" y="56.0" text-anchor="middle"    font-size="10" fill="#2563eb">hasStep</text>
  <path d="M652.0,38.0 C652.0,68.0 356.0,68.0 356.0,38.0" fill="none" stroke="#3b82f6"    stroke-width="1.2" marker-end="url(#arr)"/>
  <text x="504.0" y="56.0" text-anchor="middle"    font-size="10" fill="#2563eb">stepOf</text>
  <path d="M60.0,38.0 C60.0,68.0 652.0,68.0 652.0,38.0" fill="none" stroke="#3b82f6"    stroke-width="1.2" marker-end="url(#arr)"/>
  <text x="356.0" y="56.0" text-anchor="middle"    font-size="10" fill="#2563eb">fromStep</text>
  <path d="M60.0,38.0 C60.0,68.0 652.0,68.0 652.0,38.0" fill="none" stroke="#3b82f6"    stroke-width="1.2" marker-end="url(#arr)"/>
  <text x="356.0" y="56.0" text-anchor="middle"    font-size="10" fill="#2563eb">toStep</text>
  <path d="M504.0,38.0 C504.0,68.0 208.0,68.0 208.0,38.0" fill="none" stroke="#3b82f6"    stroke-width="1.2" marker-end="url(#arr)"/>
  <text x="356.0" y="56.0" text-anchor="middle"    font-size="10" fill="#2563eb">hasBusinessItem</text>
  <path d="M208.0,38.0 C208.0,68.0 652.0,68.0 652.0,38.0" fill="none" stroke="#3b82f6"    stroke-width="1.2" marker-end="url(#arr)"/>
  <text x="430.0" y="56.0" text-anchor="middle"    font-size="10" fill="#2563eb">actualisesStep</text>
  <rect x="0.0" y="0.0" width="120.0" height="38"    rx="6" fill="#fef3c7" stroke="#fcd34d" stroke-width="1.5"/>
  <text x="60.0" y="24.0" text-anchor="middle"    font-size="13" font-weight="500" fill="#1e293b">Route</text>
  <rect x="285.5" y="98.0" width="141.0" height="38"    rx="6" fill="#fed7aa" stroke="#fdba74" stroke-width="1.5"/>
  <text x="356.0" y="122.0" text-anchor="middle"    font-size="13" font-weight="500" fill="#1e293b">ProceduralStage</text>
  <rect x="148.0" y="0.0" width="120.0" height="38"    rx="6" fill="#fde68a" stroke="#fcd34d" stroke-width="1.5"/>
  <text x="208.0" y="24.0" text-anchor="middle"    font-size="13" font-weight="500" fill="#1e293b">BusinessItem</text>
  <rect x="296.0" y="0.0" width="120.0" height="38"    rx="6" fill="#fef3c7" stroke="#fcd34d" stroke-width="1.5"/>
  <text x="356.0" y="24.0" text-anchor="middle"    font-size="13" font-weight="500" fill="#1e293b">Procedure</text>
  <rect x="444.0" y="0.0" width="120.0" height="38"    rx="6" fill="#fde68a" stroke="#fcd34d" stroke-width="1.5"/>
  <text x="504.0" y="24.0" text-anchor="middle"    font-size="13" font-weight="500" fill="#1e293b">WorkPackage</text>
  <rect x="592.0" y="0.0" width="120.0" height="38"    rx="6" fill="#fef3c7" stroke="#fcd34d" stroke-width="1.5"/>
  <text x="652.0" y="24.0" text-anchor="middle"    font-size="13" font-weight="500" fill="#1e293b">Step</text>
</svg>